<svg width="512" height="512" xmlns="http://www.w3.org/2000/svg" xml:space="preserve" baseProfile="tiny" version="1.2">
 <title>logo_thumbnail</title>

 <g>
  <title>Layer 1</title>
  <path id="svg_9" d="m446.57735,256.28774c26.49417,-18.0642 42.14981,-48.17121 42.14981,-80.68678c0,-40.94553 -20.47277,-68.64398 -60.21402,-90.32102l-109.58951,-63.82686c-26.49417,-15.0535 -37.33269,-21.07491 -60.21402,-21.07491c-49.97763,0 -91.5253,37.33269 -97.5467,86.10604c-49.37549,-22.27919 -107.18095,-0.60214 -130.06227,48.77335c-6.0214,12.64494 -8.42996,26.49417 -8.42996,40.34339l0,174.62064c6.62354,77.67608 95.74028,81.28892 95.74028,81.28892c14.45136,0 28.90273,-3.0107 42.14981,-9.63424c3.61284,51.18191 46.36479,90.92316 98.14884,89.71888c24.68775,-0.60214 43.35409,-8.42996 72.85896,-29.50487l78.27822,-47.56907c52.98833,-29.50487 79.4825,-49.97763 79.4825,-97.5467c-0.60214,-31.91343 -16.25778,-62.02044 -42.75195,-80.68678zm-45.76265,59.00973c0,0 13.84922,7.22568 15.65564,18.66634c1.20428,9.63424 -0.60214,18.0642 -15.65564,25.28989l-130.66441,75.26752l0,0c-6.0214,3.61284 -13.84922,5.41926 -21.07491,4.81712c-7.82782,-0.60214 -14.45136,-7.22568 -15.0535,-15.0535l0,-12.0428l-0.60214,-34.92413l121.63231,-71.05254l-68.04184,-40.94553l-152.34146,87.31032c-13.24708,7.82782 -17.46206,6.62354 -17.46206,6.62354c-12.0428,0 -21.67705,-9.0321 -22.27919,-21.07491l0,0l0,-164.38426c0.60214,-6.0214 8.42996,-19.87062 20.47277,-19.87062c7.82782,0 8.42996,1.20428 22.88133,9.63424l24.68775,13.84922l0,140.9008l70.4504,-39.74125l0,-191.48057c0,-6.62354 9.63424,-13.24708 15.0535,-14.45136c6.62354,-0.60214 12.64494,1.20428 18.0642,4.21498l136.08367,77.07394c0,0 13.84922,8.42996 13.84922,20.47277c-0.60214,7.82782 -4.21498,15.0535 -10.23638,19.26848l-35.52627,22.27919l-122.23445,-71.05254l0,80.68678l152.34146,89.71888z" fill="#1062FE"/>
 </g>
</svg>