<svg width="2255" height="512" xmlns="http://www.w3.org/2000/svg" xml:space="preserve" baseProfile="tiny" version="1.2">
 <title>logo</title>

 <g>
  <title>Layer 1</title>
  <g id="svg_1">
   <g id="Layer_1-2">
    <path id="svg_2" d="m755.68589,399.82106c-16.85992,6.0214 -34.32199,9.63424 -52.38619,12.0428c-24.68775,3.61284 -49.37549,4.81712 -74.06324,4.81712c-20.47277,0.60214 -40.34339,-2.40856 -59.61187,-9.0321c-15.0535,-5.41926 -28.30059,-14.45136 -37.93483,-25.89203c-10.23638,-12.64494 -16.85992,-27.09631 -19.87062,-43.35409c-4.21498,-19.87062 -6.0214,-39.74125 -6.0214,-60.21402c0,-43.95623 10.23638,-77.07394 30.10701,-98.75098c19.87062,-21.67705 48.77335,-32.51557 86.10604,-33.11771c10.83852,0 22.27919,1.20428 33.11771,3.0107c9.0321,1.20428 18.0642,3.61284 27.09631,6.0214l0,-109.58951l73.4611,0l0,354.05841zm-73.4611,-43.35409l0,-149.33076c-6.62354,-2.40856 -13.24708,-3.61284 -19.87062,-4.81712c-9.0321,-1.80642 -18.66634,-2.40856 -28.30059,-2.40856c-10.23638,-0.60214 -19.87062,1.80642 -28.90273,6.62354c-6.62354,4.21498 -12.64494,10.83852 -16.25778,18.0642c-3.61284,7.82782 -6.0214,16.25778 -7.22568,25.28989c-1.20428,9.63424 -1.20428,19.26848 -1.80642,28.90273c0,10.83852 0.60214,21.07491 1.80642,31.31129c0.60214,9.0321 3.0107,18.0642 6.62354,27.09631c3.61284,7.82782 9.0321,14.45136 16.25778,19.26848c8.42996,5.41926 18.66634,7.82782 28.90273,7.22568c9.63424,0 19.26848,-0.60214 28.30059,-2.40856c7.22568,-0.60214 13.84922,-2.40856 20.47277,-4.81712z" fill="#1D1D1B"/>
    <path id="svg_3" d="m1009.18689,278.79089l0,4.21498c0,1.80642 0,3.61284 0,6.0214s-0.60214,4.21498 -0.60214,6.0214s-0.60214,3.0107 -0.60214,3.61284l-164.38426,0.60214c0,8.42996 0.60214,16.85992 2.40856,25.28989c1.80642,7.22568 4.81712,14.45136 9.63424,19.87062c5.41926,6.0214 12.64494,10.83852 20.47277,13.24708c11.44066,3.61284 22.88133,5.41926 34.92413,4.81712c7.22568,0 15.0535,-0.60214 22.88133,-1.20428s15.0535,-1.80642 21.67705,-2.40856s13.24708,-1.80642 18.66634,-3.0107s10.23638,-2.40856 13.84922,-3.0107l3.0107,51.18191c-13.24708,4.21498 -26.49417,7.22568 -40.34339,9.0321c-22.88133,3.0107 -46.36479,4.81712 -69.24612,4.21498c-18.0642,0.60214 -36.73055,-2.40856 -53.59047,-9.0321c-13.84922,-5.41926 -25.89203,-14.45136 -34.32199,-26.49417c-9.0321,-13.24708 -15.0535,-27.69845 -17.46206,-43.35409c-3.61284,-19.87062 -5.41926,-39.74125 -4.81712,-59.61187c0,-42.14981 9.63424,-74.66538 28.30059,-97.5467s49.97763,-34.32199 93.33172,-34.32199c18.66634,-0.60214 36.73055,2.40856 54.19261,9.0321c13.84922,5.41926 26.49417,13.84922 35.52627,25.28989c9.63424,12.0428 16.25778,25.89203 19.26848,40.94553c5.41926,18.66634 7.82782,37.33269 7.22568,56.60117zm-67.4397,-22.27919c0,-7.22568 -0.60214,-15.0535 -1.80642,-22.27919c-1.20428,-6.62354 -3.61284,-13.24708 -6.62354,-19.26848c-3.61284,-6.0214 -8.42996,-10.83852 -14.45136,-13.84922c-7.82782,-3.61284 -16.85992,-5.41926 -25.89203,-4.81712c-9.0321,-0.60214 -17.46206,1.20428 -25.89203,5.41926c-6.0214,3.0107 -10.83852,7.82782 -14.45136,13.84922c-3.61284,6.0214 -5.41926,12.64494 -6.62354,19.26848c-1.20428,7.22568 -1.80642,14.45136 -1.80642,22.27919l97.5467,-0.60214z" fill="#1D1D1B"/>
    <path id="svg_4" d="m1430.08286,152.9436l-65.03114,257.71598l-99.95526,0l-47.56907,-202.92123l-47.56907,202.92123l-99.95526,0l-65.03114,-257.71598l79.4825,0l42.14981,198.70625l44.55837,-198.70625l95.74028,0l46.96693,198.70625l39.74125,-198.70625l76.4718,0z" fill="#1D1D1B"/>
    <path id="svg_5" d="m1661.90682,399.82106c-17.46206,4.81712 -34.92413,8.42996 -52.98833,11.44066c-22.88133,3.61284 -45.76265,5.41926 -69.24612,5.41926c-18.0642,0.60214 -36.12841,-1.20428 -53.59047,-4.81712c-12.64494,-2.40856 -24.68775,-7.22568 -34.92413,-14.45136c-8.42996,-6.0214 -15.0535,-15.0535 -18.66634,-24.68775c-4.21498,-11.44066 -6.0214,-23.48347 -5.41926,-35.52627c0,-11.44066 1.80642,-22.88133 6.62354,-33.11771c4.81712,-10.23638 12.0428,-19.26848 21.67705,-25.89203c12.0428,-7.82782 25.89203,-13.84922 39.74125,-16.85992c20.47277,-4.81712 41.54767,-6.62354 62.02044,-6.0214l32.51557,0l0,-18.0642c0,-5.41926 -0.60214,-10.83852 -3.0107,-16.25778c-1.80642,-4.81712 -5.41926,-9.0321 -9.63424,-11.44066c-6.0214,-3.61284 -12.64494,-6.0214 -19.87062,-7.22568c-10.83852,-1.80642 -21.67705,-2.40856 -33.11771,-2.40856c-12.64494,0 -25.89203,1.20428 -38.53697,3.0107c-10.83852,1.20428 -21.07491,3.61284 -31.31129,7.22568l-3.0107,-48.77335c3.61284,-1.20428 8.42996,-2.40856 15.0535,-3.61284s14.45136,-3.0107 24.08561,-4.81712s19.26848,-3.0107 30.70915,-3.61284s22.88133,-1.80642 34.92413,-1.80642c16.85992,-0.60214 33.71985,1.20428 50.57977,4.81712c12.0428,2.40856 22.88133,7.22568 32.51557,14.45136c8.42996,6.62354 14.45136,15.0535 18.0642,25.28989c4.21498,12.0428 6.0214,24.68775 5.41926,37.33269l-0.60214,170.40566zm-72.85896,-39.74125l0,-65.03114l-22.88133,0c-11.44066,0 -23.48347,0.60214 -34.92413,3.0107c-7.22568,1.20428 -14.45136,4.21498 -20.47277,8.42996c-4.21498,3.0107 -7.82782,7.22568 -9.63424,12.0428c-1.80642,4.81712 -2.40856,10.23638 -2.40856,15.0535c0,4.21498 0.60214,9.0321 1.80642,13.24708c1.20428,4.21498 3.61284,7.82782 7.22568,10.23638c4.21498,3.0107 9.0321,5.41926 13.84922,6.62354c7.22568,1.80642 15.0535,2.40856 22.88133,2.40856c7.82782,0 15.65564,-0.60214 23.48347,-1.80642c6.62354,-0.60214 13.84922,-2.40856 21.07491,-4.21498l0,0z" fill="#1D1D1B"/>
    <path id="svg_6" d="m1939.49343,278.79089c0.60214,20.47277 -1.80642,40.94553 -7.22568,60.81616c-4.21498,16.25778 -12.0428,30.70915 -23.48347,43.35409c-11.44066,12.0428 -25.28989,20.47277 -40.94553,25.89203c-19.87062,6.0214 -40.94553,9.0321 -61.4183,8.42996c-22.88133,0 -45.76265,-1.20428 -68.64398,-4.81712c-16.85992,-2.40856 -33.11771,-6.0214 -49.37549,-12.0428l0,-354.66055l73.4611,0l0,110.79379c6.62354,-1.80642 15.65564,-4.21498 27.09631,-6.0214c12.64494,-2.40856 25.28989,-3.61284 37.93483,-3.0107c40.34339,0 68.64398,10.83852 86.10604,33.11771s26.49417,54.19261 26.49417,98.14884zm-75.26752,0c0,-9.63424 -0.60214,-19.26848 -1.80642,-28.90273c-0.60214,-9.0321 -3.0107,-17.46206 -7.22568,-25.28989c-3.61284,-7.22568 -9.0321,-13.84922 -16.25778,-18.0642c-9.0321,-4.81712 -18.66634,-7.22568 -28.90273,-6.62354c-10.23638,0 -19.87062,0.60214 -30.10701,2.40856c-6.0214,0.60214 -12.0428,2.40856 -18.0642,4.21498l0,149.9329c6.62354,2.40856 13.24708,4.21498 19.87062,4.81712c9.63424,1.80642 19.26848,2.40856 28.90273,2.40856c10.23638,0.60214 20.47277,-1.80642 29.50487,-7.22568c7.22568,-4.81712 12.64494,-11.44066 15.65564,-19.26848c3.61284,-8.42996 6.0214,-18.0642 6.62354,-27.09631c1.20428,-10.23638 1.80642,-20.47277 1.80642,-31.31129z" fill="#1062FE"/>
    <path id="svg_7" d="m2035.23371,79.4825c0.60214,10.23638 -3.0107,20.47277 -9.63424,27.69845c-6.62354,6.62354 -17.46206,9.63424 -33.71985,9.63424s-27.09631,-3.0107 -33.11771,-9.63424c-6.62354,-7.82782 -9.63424,-18.0642 -9.0321,-27.69845c-0.60214,-10.23638 3.0107,-19.87062 9.63424,-27.09631c6.62354,-6.0214 17.46206,-9.0321 33.71985,-9.63424c15.65564,0 26.49417,3.0107 33.11771,9.63424c6.62354,7.82782 9.63424,17.46206 9.0321,27.09631zm-6.0214,331.17708l-73.4611,0l0,-257.71598l73.4611,0l0,257.71598z" fill="#1062FE"/>
    <path id="svg_8" d="m2258.02556,410.65958l-216.16831,0l0,-52.98833l123.43873,-153.54574l-118.62161,0l0,-51.18191l207.13621,0l0,52.98833l-122.23445,153.54574l126.44943,0l0,51.18191z" fill="#1062FE"/>
    <path id="svg_9" d="m423.90667,255.90956c26.49417,-18.0642 42.14981,-48.17121 42.14981,-80.68678c0,-40.94553 -20.47277,-68.64398 -60.21402,-90.32102l-109.58951,-63.82686c-26.49417,-15.0535 -37.33269,-21.07491 -60.21402,-21.07491c-49.97763,0 -91.5253,37.33269 -97.5467,86.10604c-49.37549,-22.27919 -107.18095,-0.60214 -130.06227,48.77335c-6.0214,12.64494 -8.42996,26.49417 -8.42996,40.34339l0,174.62064c6.62354,77.67608 95.74028,81.28892 95.74028,81.28892c14.45136,0 28.90273,-3.0107 42.14981,-9.63424c3.61284,51.18191 46.36479,90.92316 98.14884,89.71888c24.68775,-0.60214 43.35409,-8.42996 72.85896,-29.50487l78.27822,-47.56907c52.98833,-29.50487 79.4825,-49.97763 79.4825,-97.5467c-0.60214,-31.91343 -16.25778,-62.02044 -42.75195,-80.68678zm-45.76265,59.00973c0,0 13.84922,7.22568 15.65564,18.66634c1.20428,9.63424 -0.60214,18.0642 -15.65564,25.28989l-130.66441,75.26752l0,0c-6.0214,3.61284 -13.84922,5.41926 -21.07491,4.81712c-7.82782,-0.60214 -14.45136,-7.22568 -15.0535,-15.0535l0,-12.0428l-0.60214,-34.92413l121.63231,-71.05254l-68.04184,-40.94553l-152.34146,87.31032c-13.24708,7.82782 -17.46206,6.62354 -17.46206,6.62354c-12.0428,0 -21.67705,-9.0321 -22.27919,-21.07491l0,0l0,-164.38426c0.60214,-6.0214 8.42996,-19.87062 20.47277,-19.87062c7.82782,0 8.42996,1.20428 22.88133,9.63424l24.68775,13.84922l0,140.9008l70.4504,-39.74125l0,-191.48057c0,-6.62354 9.63424,-13.24708 15.0535,-14.45136c6.62354,-0.60214 12.64494,1.20428 18.0642,4.21498l136.08367,77.07394c0,0 13.84922,8.42996 13.84922,20.47277c-0.60214,7.82782 -4.21498,15.0535 -10.23638,19.26848l-35.52627,22.27919l-122.23445,-71.05254l0,80.68678l152.34146,89.71888z" fill="#1062FE"/>
   </g>
  </g>
 </g>
</svg>